# xmcd
#
# Track frame offsets:
# 150
# 5130
# 16569
# 31227
# 53115
# 68314
# 82008
# 98314
# 116936
# 135895
# 149985
#
# Disc length: 2216 seconds
#
#
# Revision: 0
# Processed by: cddbd v1.5.2PL0 Copyright (c) Steve Scherf et al.
# Submitted via: FreeRIP 2.945 
#
DISCID=8508a60b
DTITLE=Tiger Army - Music From Regions Beyond
DYEAR=2007
DGENRE=Punk
TTITLE0=Prelude: Signal Return
TTITLE1=Hotprowl
TTITLE2=Afterworld
TTITLE3=Forever Fades Away
TTITLE4=Ghosts of Memory
TTITLE5=LunaTone
TTITLE6=Pain
TTITLE7=As the Cold Rain Falls
TTITLE8=Hechizo de Amor
TTITLE9=Spring Forward
TTITLE10=Where the Moss Slowly Grows
EXTD=
EXTT0=
EXTT1=
EXTT2=
EXTT3=
EXTT4=
EXTT5=
EXTT6=
EXTT7=
EXTT8=
EXTT9=
EXTT10=
PLAYORDER=
